<svg width="26" height="18" viewBox="0 0 26 18" fill="none" xmlns="http://www.w3.org/2000/svg">
<path d="M0.2 18L4.76 0.48H7.664L12.2 18H10.016L8.864 13.344H3.56L2.408 18H0.2ZM3.992 11.52H8.408L7.064 6.12C6.808 5.096 6.608 4.24 6.464 3.552C6.32 2.864 6.232 2.416 6.2 2.208C6.168 2.416 6.08 2.864 5.936 3.552C5.792 4.24 5.592 5.088 5.336 6.096L3.992 11.52ZM15.5986 18V0.48H20.1346C21.2706 0.48 22.2466 0.696 23.0626 1.128C23.8946 1.56 24.5346 2.168 24.9826 2.952C25.4466 3.736 25.6786 4.664 25.6786 5.736V12.72C25.6786 13.792 25.4466 14.728 24.9826 15.528C24.5346 16.312 23.8946 16.92 23.0626 17.352C22.2466 17.784 21.2706 18 20.1346 18H15.5986ZM17.7586 16.08H20.1346C21.1906 16.08 22.0146 15.784 22.6066 15.192C23.2146 14.6 23.5186 13.776 23.5186 12.72V5.736C23.5186 4.696 23.2146 3.88 22.6066 3.288C22.0146 2.696 21.1906 2.4 20.1346 2.4H17.7586V16.08Z" fill="black"/>
</svg>
