<svg width="32" height="32" viewBox="0 0 32 32" fill="none" xmlns="http://www.w3.org/2000/svg">
<rect width="32" height="32" fill="white"/>
<path d="M3.2 25L7.76 7.48H10.664L15.2 25H13.016L11.864 20.344H6.56L5.408 25H3.2ZM6.992 18.52H11.408L10.064 13.12C9.808 12.096 9.608 11.24 9.464 10.552C9.32 9.864 9.232 9.416 9.2 9.208C9.168 9.416 9.08 9.864 8.936 10.552C8.792 11.24 8.592 12.088 8.336 13.096L6.992 18.52ZM18.5986 25V7.48H23.1346C24.2706 7.48 25.2466 7.696 26.0626 8.128C26.8946 8.56 27.5346 9.168 27.9826 9.952C28.4466 10.736 28.6786 11.664 28.6786 12.736V19.72C28.6786 20.792 28.4466 21.728 27.9826 22.528C27.5346 23.312 26.8946 23.92 26.0626 24.352C25.2466 24.784 24.2706 25 23.1346 25H18.5986ZM20.7586 23.08H23.1346C24.1906 23.08 25.0146 22.784 25.6066 22.192C26.2146 21.6 26.5186 20.776 26.5186 19.72V12.736C26.5186 11.696 26.2146 10.88 25.6066 10.288C25.0146 9.696 24.1906 9.4 23.1346 9.4H20.7586V23.08Z" fill="black"/>
</svg>
