<svg viewBox="0 0 56 49" fill="none" xmlns="http://www.w3.org/2000/svg">
<g clip-path="url(#clip0_75_113)">
<path d="M21.391 38.3452C9.85475 41.3452 9.85475 33.3452 5.24023 32.3452M37.5418 44.3452V36.6052C37.6284 35.6515 37.4797 34.6928 37.1058 33.7928C36.7319 32.8928 36.1412 32.0721 35.373 31.3852C42.6178 30.6852 50.2318 28.3052 50.2318 17.3852C50.2312 14.5929 48.992 11.9076 46.7709 9.88521C47.8226 7.44222 47.7483 4.74191 46.5632 2.34521C46.5632 2.34521 43.8407 1.64521 37.5418 5.30521C32.2536 4.06286 26.6792 4.06286 21.391 5.30521C15.0922 1.64521 12.3697 2.34521 12.3697 2.34521C11.1846 4.74191 11.1102 7.44222 12.162 9.88521C9.92426 11.9226 8.68387 14.6321 8.70112 17.4452C8.70112 28.2852 16.3151 30.6652 23.5599 31.4452C22.8008 32.1252 22.2153 32.936 21.8417 33.8251C21.468 34.7141 21.3145 35.6613 21.391 36.6052V44.3452" stroke="#fff" stroke-width="4" stroke-linecap="round" stroke-linejoin="round"/>
</g>
<defs>
<clipPath id="clip0_75_113">
<rect width="55.3742" height="48" fill="white" transform="translate(0.625488 0.345215)"/>
</clipPath>
</defs>
</svg>
