<svg viewBox="0 0 56 49" fill="none" xmlns="http://www.w3.org/2000/svg">
<path d="M37.1678 16.3452C40.8394 16.3452 44.3605 17.6095 46.9567 19.8599C49.5528 22.1104 51.0114 25.1626 51.0114 28.3452V42.3452H41.7823V28.3452C41.7823 27.2843 41.2962 26.2669 40.4308 25.5168C39.5654 24.7666 38.3917 24.3452 37.1678 24.3452C35.944 24.3452 34.7703 24.7666 33.9049 25.5168C33.0395 26.2669 32.5533 27.2843 32.5533 28.3452V42.3452H23.3243V28.3452C23.3243 25.1626 24.7828 22.1104 27.379 19.8599C29.9751 17.6095 33.4963 16.3452 37.1678 16.3452Z" stroke="#000000b2" stroke-width="4" stroke-linecap="round" stroke-linejoin="round"/>
<path d="M14.0952 18.3452H4.86621V42.3452H14.0952V18.3452Z" stroke="#000000b2" stroke-width="4" stroke-linecap="round" stroke-linejoin="round"/>
<path d="M9.48073 12.3452C12.0293 12.3452 14.0952 10.5544 14.0952 8.34521C14.0952 6.13608 12.0293 4.34521 9.48073 4.34521C6.9322 4.34521 4.86621 6.13608 4.86621 8.34521C4.86621 10.5544 6.9322 12.3452 9.48073 12.3452Z" stroke="#000000b2" stroke-width="4" stroke-linecap="round" stroke-linejoin="round"/>
</svg>
