<svg viewBox="0 0 56 49" fill="none" xmlns="http://www.w3.org/2000/svg">
<g clip-path="url(#clip0_75_129)">
<path d="M53.0668 6.34518C50.8573 7.69614 48.411 8.7294 45.822 9.40518C44.4324 8.02021 42.5857 7.03857 40.5315 6.59304C38.4774 6.14751 36.3149 6.25958 34.3367 6.91409C32.3584 7.56861 30.6597 8.73399 29.4704 10.2526C28.2811 11.7712 27.6586 13.5699 27.687 15.4052V17.4052C23.6323 17.4963 19.6145 16.7168 15.9915 15.1361C12.3685 13.5553 9.2527 11.2225 6.92164 8.34518C6.92164 8.34518 -2.30739 26.3452 18.4579 34.3452C13.7062 37.1411 8.04564 38.543 2.30713 38.3452C23.0724 48.3452 48.4523 38.3452 48.4523 15.3452C48.4501 14.7881 48.3884 14.2324 48.2677 13.6852C50.6225 11.6722 52.2842 9.13061 53.0668 6.34518Z" stroke="#000000b2" stroke-width="4" stroke-linecap="round" stroke-linejoin="round"/>
</g>
<defs>
<clipPath id="clip0_75_129">
<rect width="55.3742" height="48" fill="white" transform="translate(0 0.345215)"/>
</clipPath>
</defs>
</svg>
